<?xml version="1.0" encoding="UTF-8" standalone="no"?>
<!-- Generator: Adobe Illustrator 17.1.0, SVG Export Plug-In . SVG Version: 6.00 Build 0)  -->

<svg
   xmlns:osb="http://www.openswatchbook.org/uri/2009/osb"
   xmlns:dc="http://purl.org/dc/elements/1.1/"
   xmlns:cc="http://creativecommons.org/ns#"
   xmlns:rdf="http://www.w3.org/1999/02/22-rdf-syntax-ns#"
   xmlns:svg="http://www.w3.org/2000/svg"
   xmlns="http://www.w3.org/2000/svg"
   xmlns:xlink="http://www.w3.org/1999/xlink"
   xmlns:sodipodi="http://sodipodi.sourceforge.net/DTD/sodipodi-0.dtd"
   xmlns:inkscape="http://www.inkscape.org/namespaces/inkscape"
   version="1.1"
   id="Capa_1"
   x="0px"
   y="0px"
   viewBox="0 0 60 60"
   xml:space="preserve"
   inkscape:version="0.48.4 r9939"
   width="100%"
   height="100%"
   sodipodi:docname="hikingmaps.svg"
   inkscape:export-filename="/home/cmeerw/hiking60.png"
   inkscape:export-xdpi="90"
   inkscape:export-ydpi="90"><metadata
     id="metadata3015"><rdf:RDF><cc:Work
         rdf:about=""><dc:format>image/svg+xml</dc:format><dc:type
           rdf:resource="http://purl.org/dc/dcmitype/StillImage" /><dc:title></dc:title></cc:Work></rdf:RDF></metadata><defs
     id="defs3013"><linearGradient
       id="linearGradient3822"><stop
         style="stop-color:#000000;stop-opacity:1;"
         offset="0"
         id="stop3824" /><stop
         id="stop3830"
         offset="0.5"
         style="stop-color:#000000;stop-opacity:0.49803922;" /><stop
         style="stop-color:#000000;stop-opacity:0;"
         offset="1"
         id="stop3826" /></linearGradient><linearGradient
       id="linearGradient3804"><stop
         id="stop3810"
         offset="0"
         style="stop-color:#999900;stop-opacity:0.49803922;" /><stop
         style="stop-color:#999900;stop-opacity:0.24705882;"
         offset="0.5"
         id="stop3812" /><stop
         style="stop-color:#999900;stop-opacity:0;"
         offset="1"
         id="stop3808" /></linearGradient><linearGradient
       id="linearGradient3798"><stop
         id="stop3800"
         offset="0"
         style="stop-color:#999900;stop-opacity:1;" /><stop
         id="stop3802"
         offset="1"
         style="stop-color:#999900;stop-opacity:0;" /></linearGradient><linearGradient
       id="linearGradient5443"><stop
         id="stop3840"
         offset="0"
         style="stop-color:#b3b300;stop-opacity:1;" /><stop
         style="stop-color:#e6e600;stop-opacity:0.25438598;"
         offset="1"
         id="stop5447" /></linearGradient><linearGradient
       id="linearGradient5435"><stop
         style="stop-color:#999900;stop-opacity:1;"
         offset="0"
         id="stop5437" /><stop
         style="stop-color:#999900;stop-opacity:0;"
         offset="1"
         id="stop5439" /></linearGradient><linearGradient
       id="linearGradient3905"><stop
         style="stop-color:#989800;stop-opacity:1;"
         offset="0"
         id="stop3907" /><stop
         style="stop-color:#676700;stop-opacity:0;"
         offset="1"
         id="stop3909" /></linearGradient><linearGradient
       id="linearGradient3825"
       osb:paint="gradient"><stop
         style="stop-color:#000000;stop-opacity:1;"
         offset="0"
         id="stop3827" /><stop
         style="stop-color:#000000;stop-opacity:0;"
         offset="1"
         id="stop3829" /></linearGradient><linearGradient
       inkscape:collect="always"
       xlink:href="#linearGradient3905"
       id="linearGradient5365"
       x1="19.326746"
       y1="32.793022"
       x2="52.32674"
       y2="32.793022"
       gradientUnits="userSpaceOnUse"
       spreadMethod="pad" /><filter
       inkscape:collect="always"
       id="filter5423"><feGaussianBlur
         inkscape:collect="always"
         stdDeviation="0.25846138"
         id="feGaussianBlur5425" /></filter><filter
       inkscape:collect="always"
       id="filter5455"><feGaussianBlur
         inkscape:collect="always"
         stdDeviation="0.16169106"
         id="feGaussianBlur5457" /></filter><linearGradient
       inkscape:collect="always"
       xlink:href="#linearGradient5443"
       id="linearGradient3838"
       x1="18.660492"
       y1="32.793022"
       x2="52.992996"
       y2="32.793022"
       gradientUnits="userSpaceOnUse" /></defs><sodipodi:namedview
     pagecolor="#ffffff"
     bordercolor="#666666"
     borderopacity="1"
     objecttolerance="10"
     gridtolerance="10"
     guidetolerance="10"
     inkscape:pageopacity="0"
     inkscape:pageshadow="2"
     inkscape:window-width="850"
     inkscape:window-height="558"
     id="namedview3011"
     showgrid="false"
     inkscape:zoom="5.8333333"
     inkscape:cx="30"
     inkscape:cy="30"
     inkscape:window-x="96"
     inkscape:window-y="89"
     inkscape:window-maximized="0"
     inkscape:current-layer="Capa_1" /><path
     sodipodi:type="arc"
     style="fill-opacity:1;stroke:url(#linearGradient5365);stroke-width:0.56736392000000002;stroke-linejoin:miter;stroke-miterlimit:4;stroke-opacity:1;stroke-dasharray:none;filter:url(#filter5455);opacity:1;fill:url(#linearGradient3838)"
     id="path3870"
     sodipodi:cx="35.826744"
     sodipodi:cy="32.793022"
     sodipodi:rx="16.216316"
     sodipodi:ry="16.122034"
     d="m 52.04306,32.793022 a 16.216316,16.122034 0 1 1 -32.432632,0 16.216316,16.122034 0 1 1 32.432632,0 z"
     transform="matrix(0,-1.7168895,1.727149,0,-26.638435,91.50992)" /><g
     id="g3005"
     style="fill:#104010;fill-opacity:1;filter:url(#filter5423)"
     transform="matrix(0.94273142,0,0,0.94678615,-2.0529284,-4.6720696)"><path
       d="m 23.866,19.481 c 2.076,-0.405 3.424,-2.421 3.019,-4.497 -0.405,-2.076 -2.41,-3.425 -4.486,-3.02 -2.075,0.405 -3.437,2.411 -3.031,4.487 0.405,2.076 2.424,3.435 4.498,3.03 z"
       id="path3007"
       inkscape:connector-curvature="0"
       style="fill:#104010;fill-opacity:1" /><path
       d="m 58.813,43.773 c -0.607,-1.139 -1.587,-1.136 -2.188,0.006 l -0.744,1.414 c -0.602,1.142 -2.135,2.068 -3.425,2.068 h -1.753 c -1.291,0 -3.1,0.716 -4.041,1.598 l -3.393,3.183 c -0.398,0.373 -0.944,0.646 -1.529,0.812 0.08,-0.171 0.115,-0.363 0.073,-0.554 L 36.421,17.266 36.398,17.2 c -0.156,-0.448 -0.655,-0.699 -1.115,-0.538 -0.414,0.144 -0.62,0.578 -0.567,1.014 l 1.663,10.788 -5.434,-0.29 -2.786,-5.986 C 27.69,21.18 26.411,20.409 25.301,20.464 l -3.523,0.319 c -0.316,0.016 -0.613,0.11 -0.883,0.253 -0.764,-0.098 -1.644,0.224 -2.342,0.578 -0.015,-0.031 -0.032,-0.059 -0.048,-0.089 0.444,-0.617 0.649,-1.404 0.492,-2.208 -0.301,-1.542 -1.8,-2.552 -3.342,-2.25 -1.542,0.301 -2.551,1.8 -2.25,3.342 0.12,0.616 0.437,1.14 0.865,1.537 -0.218,0.337 -0.329,0.709 -0.246,1.076 0.355,1.57 0.747,3.687 0.557,4.766 -0.322,1.846 -1.641,6.401 0.779,6.465 1.381,0.037 2.864,-0.299 3.884,-0.595 l -0.813,19.127 c 0.003,0.189 0.026,0.367 0.061,0.543 0.043,0.222 0.12,0.428 0.211,0.624 l -1.231,1.011 c -0.998,0.818 -2.789,1.122 -4,0.678 L 10.25,54.459 C 9.039,54.015 7.572,54.581 6.973,55.724 L 6.22,57.167 c -0.599,1.144 -0.037,2.07 1.253,2.07 h 50.824 c 1.29,0 2.542,-1.026 2.795,-2.291 l 0.836,-4.181 C 62.181,51.5 61.894,49.551 61.286,48.412 L 58.813,43.773 z M 16.586,21.839 c -0.652,0.127 -1.29,-0.082 -1.745,-0.5 -0.023,-0.023 -0.051,-0.042 -0.074,-0.065 -0.012,-0.012 -0.021,-0.026 -0.031,-0.037 -0.088,-0.099 -0.169,-0.203 -0.238,-0.318 -0.25,-0.416 -0.313,-0.908 -0.18,-1.386 0.133,-0.472 0.443,-0.875 0.875,-1.134 0.354,-0.213 0.769,-0.283 1.165,-0.195 0.401,0.089 0.736,0.327 0.942,0.672 0.172,0.287 0.216,0.627 0.125,0.957 -0.091,0.326 -0.304,0.603 -0.6,0.78 -0.516,0.308 -1.177,0.158 -1.473,-0.336 -0.252,-0.42 -0.102,-0.975 0.335,-1.237 0.373,-0.226 0.853,-0.113 1.068,0.247 0.187,0.311 0.076,0.722 -0.246,0.915 -0.015,0.009 -0.03,0.017 -0.045,0.025 -0.025,0.012 -0.01,0.011 0.031,-0.007 0.024,-0.011 0.048,-0.023 0.072,-0.037 0.185,-0.111 0.318,-0.283 0.374,-0.483 0.055,-0.196 0.029,-0.396 -0.071,-0.565 -0.135,-0.224 -0.355,-0.381 -0.62,-0.439 -0.27,-0.06 -0.553,-0.012 -0.798,0.135 -0.32,0.192 -0.55,0.49 -0.648,0.839 -0.096,0.343 -0.051,0.695 0.127,0.992 0.231,0.385 0.607,0.652 1.06,0.752 0.458,0.104 0.937,0.021 1.352,-0.228 0.337,-0.201 0.598,-0.475 0.791,-0.781 -0.202,0.706 -0.777,1.283 -1.548,1.434 z m 2.275,0.716 c -0.008,-0.049 -0.028,-0.09 -0.038,-0.138 0.362,-0.189 0.767,-0.368 1.152,-0.473 -0.159,0.289 -0.261,0.609 -0.273,0.95 l -0.17,3.99 -0.671,-4.329 z m 7.144,30.331 -2.01,-0.7 C 23.95,52.17 23.899,52.163 23.852,52.149 l 0.617,-14.623 7.211,13.895 c 0.169,0.369 0.422,0.681 0.724,0.931 l -1.96,0.609 c -1.234,0.383 -3.22,0.349 -4.439,-0.075 z m 11.601,-0.674 c -0.392,-0.142 -0.867,-0.237 -1.368,-0.296 0.454,-0.591 0.668,-1.36 0.514,-2.153 -0.039,-0.2 -0.1,-0.382 -0.172,-0.569 l -9.017,-17.721 0.072,-2.287 0.729,1.647 c 0.571,1.051 1.617,0.965 1.617,0.965 l 6.422,0.357 c 0.129,-10e-4 0.25,-0.012 0.372,-0.036 0.056,-0.011 0.107,-0.033 0.161,-0.048 l 3.182,20.642 c 0.007,0.022 0.004,0.048 0.008,0.059 0.033,0.095 0.088,0.174 0.147,0.249 -0.318,-0.02 -0.627,-0.073 -0.905,-0.174 l -1.762,-0.635 z"
       id="path3009"
       inkscape:connector-curvature="0"
       style="fill:#104010;fill-opacity:1" /></g></svg>